<svg width="145" height="28" viewBox="0 0 145 28" fill="none" xmlns="http://www.w3.org/2000/svg">
<g clip-path="url(#clip0_8337_8111)">
<path d="M50.0601 7.20239L47.3385 15.4876H47.2229L44.5013 7.20239H39.7412L44.3858 20.5396H49.7974L54.4524 7.20239H50.0601Z" fill="#FF5E30"/>
<path d="M75.9097 6.84302C74.0288 6.84302 72.5472 7.74115 71.8747 9.21183V7.2135H67.3352V20.5619H71.8747V14.0056C71.8747 11.996 72.4946 10.6825 74.0288 10.6825C75.4053 10.6825 75.8782 11.6368 75.8782 13.4667V20.5507H80.4177V12.1757C80.4177 9.39146 79.3248 6.84302 75.8992 6.84302H75.9097Z" fill="#FF5E30"/>
<path d="M110.523 9.57128V7.20247H105.984V20.5509H110.523V14.4436C110.523 12.1983 111.563 11.2328 113.245 11.2328C114.117 11.2328 115.063 11.4124 115.683 11.8054V7.22492C115.378 6.95548 114.695 6.7085 113.938 6.7085C112.288 6.7085 110.964 8.06692 110.523 9.56005V9.57128Z" fill="#FF5E30"/>
<path d="M120.979 7.20239H116.439V20.5508H120.979V7.20239Z" fill="#FF5E30"/>
<path d="M118.709 6.25935C120.125 6.25935 121.273 5.03293 121.273 3.52006C121.273 2.00719 120.125 0.780762 118.709 0.780762C117.293 0.780762 116.145 2.00719 116.145 3.52006C116.145 5.03293 117.293 6.25935 118.709 6.25935Z" fill="#FF5E30"/>
<path d="M127.914 15.4202V10.5479H131.171V7.20235H127.914V3.52002H125.192C125.192 5.55204 123.648 7.20235 121.746 7.20235V10.5479H123.427V16.8236C123.427 19.967 125.413 20.8876 127.515 20.8876C129.227 20.8876 130.31 20.4385 131.276 19.6863V16.5429C130.52 16.8685 129.9 16.992 129.343 16.992C128.418 16.992 127.914 16.5429 127.914 15.409V15.4202Z" fill="#FF5E30"/>
<path d="M88.3933 17.0144H88.3828C87.4581 17.0144 86.9642 16.5653 86.9642 15.4315V10.5591H90.2217V7.20235H86.9642V3.52002H84.2426C84.2426 5.55204 82.698 7.20235 80.796 7.20235V10.5479H82.4773V16.8236C82.4773 19.967 84.4633 20.8876 86.5649 20.8876C88.2777 20.8876 89.36 20.4385 90.3268 19.6863V16.5429C89.5807 16.8685 88.9607 17.0032 88.4038 17.0032L88.3933 17.0144Z" fill="#FF5E30"/>
<path d="M34.2876 6.84302C30.3996 6.84302 27.4889 9.86298 27.4889 14.0842C27.4889 18.3054 30.3471 20.91 34.3506 20.91C37.9864 20.91 40.1615 18.8779 40.6764 15.7906H36.9461C36.5258 16.8347 35.7377 17.2838 34.5082 17.2838C33.1317 17.2838 32.0178 16.5091 31.9023 14.8588H40.6659V13.5116C40.6659 9.89666 38.4487 6.84302 34.2771 6.84302H34.2876ZM31.9653 12.5349C32.1334 11.2775 32.7744 10.3233 34.235 10.3233C35.5801 10.3233 36.3051 11.3449 36.3682 12.5349H31.9653Z" fill="#FF5E30"/>
<path d="M60.1478 6.84302C56.2598 6.84302 53.3491 9.86298 53.3491 14.0842C53.3491 18.3054 56.2073 20.91 60.2108 20.91C63.8466 20.91 66.0218 18.8779 66.5367 15.7906H62.8063C62.386 16.8347 61.5979 17.2838 60.3685 17.2838C58.9919 17.2838 57.8781 16.5091 57.7625 14.8588H66.5262V13.5116C66.5262 9.89666 64.309 6.84302 60.1373 6.84302H60.1478ZM57.8255 12.5349C57.9937 11.2775 58.6346 10.3233 60.0953 10.3233C61.4403 10.3233 62.1653 11.3449 62.2284 12.5349H57.8255Z" fill="#FF5E30"/>
<path d="M145 13.5116C145 9.89666 142.783 6.84302 138.611 6.84302C134.723 6.84302 131.812 9.86298 131.812 14.0842C131.812 18.3054 134.671 20.91 138.674 20.91C142.31 20.91 144.485 18.8779 145 15.7906H141.27C140.849 16.8347 140.061 17.2838 138.832 17.2838C137.455 17.2838 136.341 16.5091 136.226 14.8588H144.989V13.5116H145ZM136.299 12.5349C136.467 11.2775 137.108 10.3233 138.569 10.3233C139.914 10.3233 140.639 11.3449 140.702 12.5349H136.299Z" fill="#FF5E30"/>
<path d="M99.7315 6.82074C97.6299 6.82074 96.2218 7.89849 95.6123 9.49267V1.66772H91.0729V20.5397H94.5826L95.3601 18.2382C96.0642 19.8548 97.6299 20.9101 99.6474 20.9101C103.409 20.9101 105.28 17.8228 105.28 13.8711C105.28 9.91928 103.399 6.82074 99.7315 6.82074ZM98.1448 17.1492C96.6001 17.1492 95.6228 15.8918 95.6228 13.9384V13.7588C95.6228 11.839 96.6106 10.5817 98.1448 10.5817C99.9101 10.5817 100.719 11.9288 100.719 13.8486C100.719 15.7684 99.9101 17.138 98.1448 17.138V17.1492Z" fill="#FF5E30"/>
<path d="M19.0934 18.6197L10.729 11.6593C10.5924 11.547 10.729 11.3112 10.8867 11.4123L14.1546 13.3657C15.6363 14.2526 17.5067 13.7362 18.3999 12.1981C19.3456 10.5703 18.8517 8.43721 17.2965 7.48295L12.5049 4.53035C12.3578 4.44054 12.4629 4.18233 12.631 4.26091L14.8272 5.20395C14.8272 5.20395 14.8797 5.2264 14.9007 5.2264C15.1319 5.31622 15.3841 5.36112 15.6468 5.36112C16.8342 5.36112 17.8219 4.35073 17.906 3.14948C18.0111 1.58898 16.9077 0.5 15.5732 0.5H5.40147C4.09848 0.5 2.99514 1.63389 3.01615 3.03721C3.01615 3.77817 3.3419 4.44054 3.82527 4.88961C4.19305 5.23763 5.42249 6.2817 6.01094 6.7869C6.11602 6.87672 6.05297 7.05634 5.92687 7.05634H3.88832C1.74469 7.06757 0.0108643 8.93118 0.0108643 11.2214C0.0108643 12.3778 0.452201 13.4218 1.16675 14.1852L12.9672 26.164C13.7974 26.9948 14.9217 27.5 16.1512 27.5C18.7361 27.5 20.8272 25.2659 20.8272 22.5042C20.8272 20.9437 20.1547 19.5403 19.1039 18.6197H19.0934Z" fill="#FF5E30"/>
</g>
<defs>
<clipPath id="clip0_8337_8111">
<rect width="145" height="27" fill="white" transform="translate(0 0.5)"/>
</clipPath>
</defs>
</svg>