<svg xmlns="http://www.w3.org/2000/svg" version="1.1" xmlns:xlink="http://www.w3.org/1999/xlink" width="1000" height="1000"><style>
    #light-icon {
      display: inline;
    }
    #dark-icon {
      display: none;
    }

    @media (prefers-color-scheme: dark) {
      #light-icon {
        display: none;
      }
      #dark-icon {
        display: inline;
      }
    }
  </style><g id="light-icon"><svg xmlns="http://www.w3.org/2000/svg" version="1.1" xmlns:xlink="http://www.w3.org/1999/xlink" width="1000" height="1000"><g><g transform="matrix(4.504504504504505,0,0,4.504504504504505,299.5495495495495,0)"><svg xmlns="http://www.w3.org/2000/svg" version="1.1" xmlns:xlink="http://www.w3.org/1999/xlink" width="89px" height="222px"><svg version="1.0" xmlns="http://www.w3.org/2000/svg" width="89px" height="222px" viewBox="0 0 89 222">
  <path d="M 50.547 1.683 C 42.247 5.283 36.747 18.883 39.547 28.583 C 42.447 38.383 49.147 43.183 59.747 43.183 C 69.247 43.083 73.647 39.483 77.047 28.883 C 78.747 23.383 78.947 21.583 78.047 16.883 C 76.847 10.083 74.747 6.983 69.147 3.883 C 64.547 1.383 54.147 0.083 50.547 1.683 L 50.547 1.683 Z"></path>
  <path d="M 34.347 58.283 C 25.247 60.783 7.847 68.583 4.847 71.483 C 1.947 74.183 0.147 80.283 1.647 81.783 C 2.147 82.283 4.947 81.883 8.047 80.783 C 15.247 78.283 24.747 77.383 28.247 78.683 C 29.847 79.283 31.947 81.183 33.047 82.983 C 36.047 87.983 35.647 96.483 30.647 131.983 C 28.147 149.183 25.147 171.583 23.947 181.883 L 21.647 200.383 L 24.747 206.983 C 32.147 222.783 44.047 224.483 71.747 213.683 C 84.547 208.683 86.947 206.683 87.747 200.983 L 88.347 196.683 L 84.947 197.183 C 83.047 197.483 78.847 198.183 75.647 198.783 C 57.947 201.783 53.547 198.283 53.747 181.283 C 53.747 176.283 55.047 164.883 56.447 155.783 C 63.147 114.183 65.347 97.083 65.447 84.283 C 65.547 72.183 65.347 70.983 63.047 66.783 C 61.447 63.983 59.047 61.483 56.347 59.983 C 50.947 57.083 41.347 56.283 34.347 58.283 L 34.347 58.283 Z"></path>
</svg></svg></g></g></svg></g><g id="dark-icon"><svg xmlns="http://www.w3.org/2000/svg" version="1.1" xmlns:xlink="http://www.w3.org/1999/xlink" width="1000" height="1000"><g><g transform="matrix(4.504504504504505,0,0,4.504504504504505,299.5495495495495,0)"><svg xmlns="http://www.w3.org/2000/svg" version="1.1" xmlns:xlink="http://www.w3.org/1999/xlink" width="89px" height="222px"><svg version="1.0" xmlns="http://www.w3.org/2000/svg" width="89px" height="222px" viewBox="0 0 89 222">
  <path d="M 50.547 1.683 C 42.247 5.283 36.747 18.883 39.547 28.583 C 42.447 38.383 49.147 43.183 59.747 43.183 C 69.247 43.083 73.647 39.483 77.047 28.883 C 78.747 23.383 78.947 21.583 78.047 16.883 C 76.847 10.083 74.747 6.983 69.147 3.883 C 64.547 1.383 54.147 0.083 50.547 1.683 L 50.547 1.683 Z" style="fill: rgb(255, 255, 255);"></path>
  <path d="M 34.347 58.283 C 25.247 60.783 7.847 68.583 4.847 71.483 C 1.947 74.183 0.147 80.283 1.647 81.783 C 2.147 82.283 4.947 81.883 8.047 80.783 C 15.247 78.283 24.747 77.383 28.247 78.683 C 29.847 79.283 31.947 81.183 33.047 82.983 C 36.047 87.983 35.647 96.483 30.647 131.983 C 28.147 149.183 25.147 171.583 23.947 181.883 L 21.647 200.383 L 24.747 206.983 C 32.147 222.783 44.047 224.483 71.747 213.683 C 84.547 208.683 86.947 206.683 87.747 200.983 L 88.347 196.683 L 84.947 197.183 C 83.047 197.483 78.847 198.183 75.647 198.783 C 57.947 201.783 53.547 198.283 53.747 181.283 C 53.747 176.283 55.047 164.883 56.447 155.783 C 63.147 114.183 65.347 97.083 65.447 84.283 C 65.547 72.183 65.347 70.983 63.047 66.783 C 61.447 63.983 59.047 61.483 56.347 59.983 C 50.947 57.083 41.347 56.283 34.347 58.283 L 34.347 58.283 Z" style="fill: rgb(255, 255, 255);"></path>
</svg></svg></g></g></svg></g></svg>