<svg version="1.0" xmlns="http://www.w3.org/2000/svg" width="906.667" height="377.333" viewBox="0 0 680 283"><path d="M86 9.5V19h27v37h18V19.1l13.8-.3 13.7-.3V.5L122.3.2 86 0v9.5zM163.5 1.2c-.3.7-.4 13.2-.3 27.8l.3 26.5h18l.5-9.5c.3-5.2.8-9.4 1.3-9.3.4.2 7.7.3 16.2.3H215v19h18V0h-17.9l-.3 9.7-.3 9.8-16.2.3-16.2.2-.3-9.7-.3-9.8-8.8-.3c-6.5-.2-8.9.1-9.2 1zM241 28v28h61.1l-.3-7.8-.3-7.7-20-.2c-11-.1-20.6-.3-21.3-.3-.8 0-1.2-.9-1-2.3.3-2.2.4-2.2 20.6-2.5l20.3-.2-.3-6.8-.3-6.7-20-.5c-19.2-.5-20-.6-20-2.5s.8-2 21.3-2.3L302 16V0h-61v28zM49.5 10.9c-8.3 3.6-13.8 17.2-11 26.9 2.9 9.8 9.6 14.6 20.2 14.6 9.5-.1 13.9-3.7 17.3-14.3 1.7-5.5 1.9-7.3 1-12-1.2-6.8-3.3-9.9-8.9-13-4.6-2.5-15-3.8-18.6-2.2zM591.9 43c-16 8.5-19.4 36.4-6.5 53.2l3.4 4.3-2 5.5c-1.1 3-2.4 5.9-2.8 6.3-.4.5-1.3-2-1.9-5.5-3.6-19.1-15.5-28.7-34-27.6-13 .8-22.8 6.8-27.7 17.3-4.6 9.7-2.5 22.8 4.1 26 10.1 4.7 17.5-7.4 11-18-3.3-5.3-3.2-9 .3-12.5 5.9-5.9 14.4-4.5 18.1 2.8 1.1 2.1 2.4 7.1 3 11.2.9 6.4.8 8-.8 11.5-1.8 4.1-3.6 5.7-19.5 16.8-10.8 7.5-15.9 13.9-18.2 22.7-5.8 22.6 11.2 41.6 32.1 35.9 2.5-.7 5.6-2.8 8.4-5.7 3.7-3.9 4.5-4.3 5.3-2.8 2.7 4.7 8.6 7.6 15.9 7.6 5.1 0 13.4-2.7 16.6-5.4 2.7-2.3 2.7-2.4.9-5-1.2-2-2.2-2.5-3.4-2-3.6 1.5-5.9 1.5-7.1 0-.9-1-1.6-9.1-2.3-26.3l-1.1-24.8 5.9-13 6-13 3.8.1c2.1.1 5 1 6.4 2.1 4.6 3.5 4.2 9.5-1.9 28.1-6.2 18.7-6.7 25.2-3 37.2 3.2 10.5 6.2 15.9 11.4 20.7 5 4.6 9 5.8 16.7 5.1 14.3-1.4 31.9-17.6 42.5-39.2 6.8-13.6 11-33.6 7.2-33.6-1.9 0-3.2 2.6-10.9 21.8-10.4 26-15 34.1-22.1 39.3-5.6 4-9 3.8-13.7-.9-8.8-8.8-8-19.9 5-63.7 2.5-8.4 4.4-17.1 4.7-21.7.5-7.2.4-7.7-2-10.2-1.7-1.7-3.7-2.6-5.6-2.6-3.7 0-14.4 3.9-22 8-6.1 3.4-8.3 3.7-10.1 1.5-1.9-2.3-.7-8.8 4-21 4.6-12.1 6.3-23.3 4-27.4-2.6-4.9-11.8-6.4-18.1-3.1zm9.7 22.8c-.9 4.9-6.9 22.2-7.7 22.2-1.1 0-2.9-6-2.9-9.6 0-4.7 3.4-13.2 6.7-16.6 2.3-2.4 2.8-2.6 3.6-1.2.5.8.6 3.2.3 5.2zm-42.3 83.4c.7 22 .2 26.4-3.8 30.4-3.1 3.1-4 3-7.5-.4-5.4-5.4-6.6-23.6-2.3-33.2 1.9-4.3 11.1-16.9 12.4-17 .3 0 .9 9.1 1.2 20.2zM363.5 50.9C343.5 54 334 62.3 334 76.5c.1 10 5.6 18.7 15 23.5 4.2 2.1 5.2 4 2.3 4-3.9 0-9.5 2.3-12.8 5.2-3.2 2.8-3.5 3.4-3.5 8.8 0 6.8 2.3 10.4 9.9 15.2 4.5 2.8 4.5 3.2.4 2.8-3.3-.2-13.3 2-16.6 3.7-6 3-8.6 12.7-5.2 19.2 4 7.9 16.1 13.9 33.5 16.6 31.7 5 58-3.1 62.8-19.4 1.7-5.3 1.5-12.5-.3-16.9-2-4.6-7.8-10.8-12.5-13.2-4.8-2.4-16.2-4.9-30.8-6.6-17.4-2-21.3-4-19.8-9.9 1-3.9 3.1-4.4 14.6-3.2 20.9 2.1 37.8-4.3 42.7-16.2 2.1-4.9 1.8-13.2-.6-18.7-2.6-5.7-2.6-5.5.2-5 1.2.3 5.2.8 8.8 1.1l6.6.6.7-4.2c.4-2.7.3-4.5-.4-4.9-.6-.4-7.5-1.2-15.3-1.9-7.8-.7-18.2-2.3-23.2-3.6-10.5-2.8-20-3.7-27-2.6zm17.4 8.5c1.5.8 3.5 3.3 4.5 5.5 2.5 5.5 1.9 20.6-1.1 27.3-4.5 10-15.4 10.3-20.4.6-1.9-3.7-2.1-5.3-1.6-13.3.4-4.9 1.2-10.7 1.8-12.8 2.5-7.5 10-10.8 16.8-7.3zm-5 81.6c15.5 1.8 20.4 6.1 18.2 16-1.3 5.9-6.1 10.6-12.3 12.1-6.2 1.4-16.7.5-22.3-2-10.8-4.9-13.4-17.1-5.4-25.1 2.8-2.7 3.6-3 7.7-2.5 2.6.3 8.9 1 14.1 1.5zM230 66c-8.5 1.6-19.1 8.9-26.9 18.6l-3.6 4.4-.6-2.8c-2.1-9.8-13.7-19.5-21.5-18-3.4.6-4.5 4.7-3.2 11.7 1.7 9.3-.1 22.7-6.7 48.5-6 23.6-7.8 28.7-7 19.6.9-9.6 4.5-67.6 4.5-72.7v-5l-21.7-1.2c-12-.6-23.9-1.4-26.5-1.8-4.5-.5-4.7-.5-5 2.3l-.3 2.9H103c-4.7 0-13.2-.2-19-.5l-10.5-.5L71.9 97c-3.8 59.1-5.2 82.9-5.3 89l-.1 6.5 8.5.6c4.7.4 13.1.9 18.8 1.3l10.2.6v-3c0-3 .1-3 5.3-3 2.8 0 14.7.7 26.2 1.5 11.6.8 21.3 1.5 21.7 1.5.3 0 1.5 1.5 2.6 3.3l2 3.4 7.8-2.5c12.4-3.8 12.1-3.6 12.9-8.1.7-4.5 2.6-10.4 8-26.1 2.4-6.9 3.8-13.2 4.2-18.3l.6-7.8 2.9 2.8c6.2 5.9 11 18.4 15.3 40.5 6.1 30.4 10.1 42.8 16.3 49.8 3.3 3.7 4.4 4.3 8.9 4.7 4.8.5 5.5.3 8.3-2.5 3.8-3.8 3.9-7.9.6-15.3-1.4-3-5-15.1-8.1-26.9-6.7-25.7-8.6-31.9-13.3-42.9-3.2-7.6-3.4-8.4-1.8-9.3 5-2.8 14.7-11.2 19-16.4 7.7-9.4 10.9-17.2 11.4-27.5s-.7-14.7-5.6-20.1c-5.5-6.1-11.5-8.2-19.2-6.8zm1 18.6c0 9.4-6 22.2-14.8 31.6-4.3 4.6-11.2 8.8-14.5 8.8-2.9 0-5-5.7-4.4-11.9 1.4-14.9 13.8-32.2 26.4-36.7 3.5-1.2 3.9-1.1 5.6.8 1.1 1.4 1.7 3.7 1.7 7.4zm-103.3 5.9c5.6 1.7 12.6 7.2 15 11.9 2.6 5.1 2.2 16-.9 22.1-3.1 6.1-4.7 7.6-11.8 11.1-3 1.5-5.7 2.8-5.9 3-.2.2.8 1.3 2.3 2.5 1.4 1.1 3.9 3.9 5.5 6.2 3.8 5.6 18.1 31.2 18.1 32.5 0 1-15.2.7-20.5-.3-1.4-.3-4.2-4.5-9.4-14.5-4-7.7-8.5-15.5-9.9-17.2l-2.7-3.1-.5 2.4c-.5 2.1-1.1 2.4-4.2 2.1l-3.6-.3-.6 6.3c-.3 3.5-.9 11.2-1.3 17.3l-.8 11-9.5-.4c-5.2-.1-9.8-.6-10.2-1-.7-.7 4.7-87.4 5.6-88.9.4-.6 1.2-.9 1.9-.7.7.2 6.7.6 13.5 1l12.2.6v-6.4l6.4.7c3.5.3 8.5 1.3 11.3 2.1z"/><path d="M109.7 103.7c-.4.3-.7 1.7-.7 3 0 2-.5 2.3-3.9 2.3h-3.8l-.7 9.2c-1.1 16.3-1.2 15.8 3.4 15.8 3.8 0 4-.2 4-3 0-2.3.4-3 2-3 3.9 0 9-2.9 11-6.2 2.4-4 2.6-10.5.4-13.7-2.4-3.4-9.9-6.3-11.7-4.4zM33.3 67.5C24.2 70 6.8 77.8 3.8 80.7.9 83.4-.9 89.5.6 91c.5.5 3.3.1 6.4-1 7.2-2.5 16.7-3.4 20.2-2.1 1.6.6 3.7 2.5 4.8 4.3 3 5 2.6 13.5-2.4 49-2.5 17.2-5.5 39.6-6.7 49.9l-2.3 18.5 3.1 6.6c7.4 15.8 19.3 17.5 47 6.7 12.8-5 15.2-7 16-12.7l.6-4.3-3.4.5c-1.9.3-6.1 1-9.3 1.6-17.7 3-22.1-.5-21.9-17.5 0-5 1.3-16.4 2.7-25.5 6.7-41.6 8.9-58.7 9-71.5.1-12.1-.1-13.3-2.4-17.5-1.6-2.8-4-5.3-6.7-6.8-5.4-2.9-15-3.7-22-1.7zM424.8 75.7c-.2.5-.4 18.8-.3 40.8 0 39.5 0 40.1 2.3 45.7 4.8 11.9 17 21.4 30.8 24 7.7 1.4 12.6.5 16.8-3.3 4.6-4 6.5-9.4 7.6-20.8 1.4-15 5-24.8 22.3-61.6 4.7-9.9 8.2-18.3 7.9-18.6-.4-.3-8.3 0-17.7.7-19.4 1.4-17.6.5-23.5 12.9-5.4 11.4-6.4 17.6-5.3 32.6 1.3 16 .4 29.1-2.2 31.9-2.1 2.4-6.4 2.6-10.4.6-5.4-2.8-5.6-4-5.9-42.3-.3-32.8-.4-35.3-2.1-36.2-2.2-1.2-18.2-7.1-19.2-7.1-.4 0-.9.3-1.1.7zM259 127.7c-15.7 4.7-28.6 8.6-28.7 8.7-.2.1 5.8 20.8 13.2 46 7.4 25.2 13.5 46 13.5 46.2 0 .2.6.4 1.3.4 1.1 0 56.8-16 57.5-16.6.8-.5-5.3-20.4-6.1-20.4-.5 0-8.5 2.3-17.8 5-9.3 2.8-17.5 5-18.2 5-1.1 0-4.4-9.3-5.1-14.4 0-.5 5.4-2.5 12.1-4.5 6.7-2 12.4-3.9 12.8-4.2.5-.5-4.2-18.4-5.2-19.8-.1-.2-5.8 1.3-12.6 3.3-6.9 2-12.7 3.6-13 3.6-.7 0-4.7-11.9-4.7-14 0-1.3 4-2.9 17.3-6.8 9.5-2.9 17.9-5.2 18.6-5.2.7 0 1-.7.7-1.8-3.7-12.7-5.8-19.2-6.4-19.1-.4 0-13.5 3.9-29.2 8.6z"/><path d="M496.4 123.4c-1.1 3.5-9.5 82.9-8.8 83.5 1.3 1.2 48.6 6.3 49.4 5.4.4-.4 1.1-4 1.4-7.9l.7-7.1-15.6-1.8c-8.5-1-15.5-2.2-15.5-2.7s1.6-14.9 3.5-32.1c1.9-17.2 3.6-32.3 3.8-33.7.2-2.4 0-2.5-9.2-3.6-6.6-.7-9.4-.7-9.7 0zM323.3 177.1c-9.9 6.3-9.7 20.9.3 26.6 13.2 7.6 28.2-6.2 21.5-19.9-1.1-2.4-3.6-5.3-5.4-6.6-4.4-2.9-11.9-3-16.4-.1zM512.8 227c-17.1 2.7-25.1 11.4-25.1 27.1 0 11.7 4.3 19.8 12.7 24.1 8.9 4.6 26.9 6.1 39.7 3.4 16.5-3.5 22.3-10.5 22.4-27.1 0-14.1-5.7-22.1-18.6-25.9-6.6-2-23.3-2.8-31.1-1.6zm22.2 16c5.1 2.6 7.2 5.8 7.2 11.5.2 8.6-6.1 13.5-17 13.5-12 0-17.7-4.9-16.9-14.7.6-8.6 5.5-12.2 16.5-12.3 4.4 0 7.5.6 10.2 2zM350.7 228.1c-11.6 1.3-16.7 6.3-16.7 16.1 0 12.9 5.4 15.8 33.1 18.2 8.8.8 16.4 1.7 16.7 2 .3.4 0 1.2-.7 1.9-.8.8-5.2 1.2-14.1 1.2-10.7-.1-13.2-.3-14.8-1.8-1.4-1.3-3.7-1.7-10.5-1.7H335v3.6c0 5.3 2.6 10 6.6 11.9 5.1 2.4 20.3 3.8 34 3.1 16.5-.8 22.1-2.1 26.1-6.1 3.1-3.1 3.3-3.8 3.3-9.9 0-13.8-2.8-15.3-33.7-18.1-9.2-.9-17.2-2-17.8-2.6-2-2 2.1-2.9 14.1-2.9 10.6 0 12.4.2 14.7 2 2.1 1.7 4 2 11.6 2h9.1v-3.9c0-4.9-3.4-10-8.2-12.4-6.5-3.2-28.1-4.5-44.1-2.6zM412 227.5V282c0 .6 3.7 1 9 1h9v-20h33v20h18v-56h-18v19h-33v-19h-9c-4.9 0-9 .2-9 .5zM564 228c0 1 7.1 18.1 19.4 47l3.2 7.5 8.7.3 8.6.3 2.9-6.3c1.6-3.5 4.4-10 6.3-14.5 1.9-4.5 3.7-8.1 4.2-8 .4.1 3.5 6.5 7 14.2l6.2 14 8.6.3 8.6.3 11.3-26.8c6.2-14.7 11.5-27.4 11.7-28.1.4-1-1.5-1.2-9.2-1l-9.7.3-6.1 14.7c-3.3 8.2-6.3 14.8-6.6 14.8-.3 0-2.1-3.7-4-8.3-1.9-4.5-4.8-11.2-6.4-15l-3-6.7H608.4l-6.3 15.5c-3.5 8.6-6.5 15.4-6.7 15.2-.2-.1-3.2-7-6.6-15.2l-6.3-15-9.3-.3c-6.2-.2-9.2.1-9.2.8z"/></svg>